<svg xmlns="http://www.w3.org/2000/svg" viewBox="0 0 1200 800" role="img" aria-label="Placeholder implantaçăo do condomínio">
  <rect width="1200" height="800" fill="#f5efdf" />
  <rect x="120" y="100" width="960" height="600" rx="20" fill="#fffaf1" stroke="#8f7b5c" stroke-width="7" />
  <g fill="#d7c29b" stroke="#8f7b5c" stroke-width="3">
    <rect x="180" y="170" width="170" height="110" />
    <rect x="380" y="170" width="170" height="110" />
    <rect x="580" y="170" width="170" height="110" />
    <rect x="780" y="170" width="170" height="110" />
    <rect x="180" y="320" width="170" height="110" />
    <rect x="380" y="320" width="170" height="110" />
    <rect x="580" y="320" width="170" height="110" />
    <rect x="780" y="320" width="170" height="110" />
    <rect x="180" y="470" width="170" height="110" />
    <rect x="380" y="470" width="170" height="110" />
    <rect x="580" y="470" width="170" height="110" />
    <rect x="780" y="470" width="170" height="110" />
  </g>
  <circle cx="600" cy="400" r="92" fill="#b89b70" fill-opacity="0.65" />
  <text x="160" y="78" fill="#574933" font-family="Inter, Arial, sans-serif" font-size="36">
    IMPLANTAÇĂO PLACEHOLDER
  </text>
</svg>
